# xmcd
#
# Track frame offsets:
#	150
#	13552
#	22797
#	30910
#	40577
#	50152
#	56215
#	65117
#	71695
#	79907
#	87635
#	93430
#	99880
#	107165
#	118292
#	130467
#	138042
#	146340
#	157985
#	165310
#	174030
#	184012
#	190047
#	197440
#	205292
#
# Disc length: 2865 seconds
#
# Revision: 1
# Processed by: cddbd v1.5PL3 Copyright (c) Steve Scherf et al.
# Submitted via: CDex 1.50Beta5
#
DISCID=4b0b2f19
DTITLE=Various Artist - ベスト!ようちえん・ほいくえんでうたうた Disc 1
DYEAR=2001
DGENRE=folk
TTITLE0=神崎ゆう子/きみのなまえ
TTITLE1=神崎ゆう子/かっぱなにさま?かっぱさま!
TTITLE2=大和田りつこ/アイアイ
TTITLE3=大和田りつこ/パンダうさぎコアラ
TTITLE4=神崎ゆう子/チキンダンス
TTITLE5=森みゆき/やぎさんゆうびん
TTITLE6=たいらいさお/もりのくまさん
TTITLE7=神崎ゆう子/くじらのとけい
TTITLE8=子鬼トリオ/子鬼トリオのテーマ
TTITLE9=神崎ゆう子/おべんとうばこのうた
TTITLE10=大和田りつこ/いとまき
TTITLE11=神崎ゆう子/おみせやさんにあるもの
TTITLE12=神崎ゆう子/ドンドンどこどこ
TTITLE13=神崎ゆう子/はみがきじょうずかな
TTITLE14=ゾウサンズ/パジャマでおじゃま
TTITLE15=神崎ゆう子/バスごっこ
TTITLE16=大和田りつこ/ごんべえさんのあかちゃん
TTITLE17=しばたかの/ごめんな・サイです
TTITLE18=神崎ゆう子/たのしいね
TTITLE19=麻生かほ里/おじゃる丸かぞえ歌
TTITLE20=大和田りつこ/てをたたきましょう
TTITLE21=神崎ゆう子/やきいもグーチーパー
TTITLE22=神崎ゆう子/こうえんにいきましょう
TTITLE23=神崎ゆう子/てをたたこ
TTITLE24=神崎ゆう子/バイ・バイ・バイ!
EXTD=
EXTT0=
EXTT1=
EXTT2=
EXTT3=
EXTT4=
EXTT5=
EXTT6=
EXTT7=
EXTT8=
EXTT9=
EXTT10=
EXTT11=
EXTT12=
EXTT13=
EXTT14=
EXTT15=
EXTT16=
EXTT17=
EXTT18=
EXTT19=
EXTT20=
EXTT21=
EXTT22=
EXTT23=
EXTT24=
PLAYORDER=
